# xmcd
#
# Track frame offsets:
# 150
# 22555
# 47578
# 59137
# 97250
# 114606
# 141125
#
# Disc length: 2245 seconds
#
# Revision: 0
# Processed by: cddbd v1.5PL3 Copyright (c) Steve Scherf et al.
# Submitted via: Audion 3.0.2 (http://www.panic.com/audion/)
#
DISCID=5d08c307
DTITLE=Jeff Beck Group - Rough and Ready
DYEAR=1900
DGENRE=
TTITLE0=Got The Feeling
TTITLE1=Situation
TTITLE2=Short Business
TTITLE3=Haynes Park Blues
TTITLE4=I've Been Used
TTITLE5=New Ways Train Train
TTITLE6=Jody
EXTD=
EXTT0=
EXTT1=
EXTT2=
EXTT3=
EXTT4=
EXTT5=
EXTT6=
PLAYORDER=
